<?xml version="1.0" standalone="no"?>
<!DOCTYPE svg PUBLIC "-//W3C//DTD SVG 20010904//EN"
 "http://www.w3.org/TR/2001/REC-SVG-20010904/DTD/svg10.dtd">
<svg version="1.0" xmlns="http://www.w3.org/2000/svg"
 width="512.000000pt" height="512.000000pt" viewBox="0 0 512.000000 512.000000"
 preserveAspectRatio="xMidYMid meet">
<metadata>
Created by potrace 1.11, written by Peter Selinger 2001-2013
</metadata>
<g transform="translate(0.000000,512.000000) scale(0.100000,-0.100000)"
fill="#000000" stroke="none">
<path d="M2399 4956 c-2 -2 -38 -6 -79 -10 -136 -12 -369 -57 -445 -86 -17 -7
-39 -14 -50 -16 -35 -6 -221 -82 -313 -126 -133 -64 -350 -197 -395 -242 -9
-9 -18 -16 -22 -16 -4 0 -12 -6 -19 -12 -8 -7 -38 -33 -67 -58 -57 -48 -211
-200 -269 -266 -96 -110 -233 -309 -291 -424 -18 -36 -35 -67 -39 -70 -4 -3
-11 -16 -15 -30 -4 -14 -20 -52 -36 -85 -48 -105 -124 -340 -145 -449 -2 -12
-8 -43 -14 -71 -5 -27 -12 -72 -16 -100 -3 -27 -9 -77 -14 -110 -8 -65 -7
-476 2 -491 3 -5 9 -34 12 -65 4 -31 9 -67 12 -80 3 -13 7 -36 9 -51 23 -153
132 -468 220 -633 75 -140 179 -306 197 -313 4 -2 8 -10 8 -18 0 -8 7 -17 15
-20 8 -4 15 -11 15 -18 0 -6 8 -19 18 -27 9 -9 33 -36 52 -60 80 -99 332 -338
358 -339 6 0 12 -4 12 -9 0 -5 17 -20 38 -32 20 -13 42 -28 47 -34 25 -28 219
-142 338 -198 266 -127 506 -193 824 -227 78 -8 435 -6 483 3 14 3 47 8 73 12
27 4 59 8 70 11 12 2 34 6 49 9 133 25 344 89 468 142 87 38 226 108 232 118
5 6 8 6 8 0 0 -7 3 -7 8 0 4 6 24 19 45 30 21 11 47 28 57 38 11 9 23 17 28
17 5 0 46 28 92 63 46 34 90 67 98 72 43 29 302 276 302 288 0 3 12 18 28 34
53 56 187 237 212 288 6 11 24 43 40 70 43 71 122 237 155 325 15 41 34 89 41
105 7 17 26 84 43 150 30 119 36 148 47 215 3 19 7 46 10 60 19 111 26 460 11
585 -4 33 -10 80 -13 105 -4 37 -16 98 -49 249 -23 106 -101 313 -174 463 -56
113 -195 341 -232 378 -9 8 -20 22 -25 31 -29 52 -237 269 -347 364 -126 108
-300 222 -474 311 -94 48 -278 124 -300 124 -7 0 -21 4 -31 10 -44 24 -270 78
-407 96 -27 3 -59 8 -70 11 -23 5 -421 13 -426 9z"/>
</g>
</svg>
